/vscmnt/brussel_pixiu_data/_data_brussel/112/vsc11236/PredSimResults/SUBJ10mtu3D/worker3.mot
version=1
nRows=8
nColumns=50
inDegrees=yes
endheader
                time	         pelvis_tilt	         pelvis_list	     pelvis_rotation	           pelvis_tx	           pelvis_ty	           pelvis_tz	       hip_flexion_r	     hip_adduction_r	      hip_rotation_r	        knee_angle_r	       ankle_angle_r	         mtp_angle_r	       hip_flexion_l	     hip_adduction_l	      hip_rotation_l	        knee_angle_l	       ankle_angle_l	         mtp_angle_l	    lumbar_extension	      lumbar_bending	     lumbar_rotation	 ercspn_r/activation	 intobl_r/activation	 extobl_r/activation	    abd_r/activation	    add_r/activation	hamstrings_r/activation	bifemsh_r/activation	glut_max_r/activation	iliopsoas_r/activation	rect_fem_r/activation	  vasti_r/activation	gastroc_r/activation	 soleus_r/activation	tib_ant_r/activation	 ercspn_l/activation	 intobl_l/activation	 extobl_l/activation	    abd_l/activation	    add_l/activation	hamstrings_l/activation	bifemsh_l/activation	glut_max_l/activation	iliopsoas_l/activation	rect_fem_l/activation	  vasti_l/activation	gastroc_l/activation	 soleus_l/activation	tib_ant_l/activation	
          0.63231757	          3.78087907	          1.52157076	         -2.24366616	          0.76510425	          0.83056097	         -0.00266811	         25.75467193	          3.96846805	          5.10188232	        -45.16431652	         17.36263408	          0.07679729	          1.09692141	          3.39155731	        -14.10746122	        -49.41899504	          7.47715511	         27.17175768	        -10.93887790	          0.61305503	         -5.86734111	          0.12368806	          0.05946942	          0.02232284	          0.08164883	          0.09727454	          0.01000000	          0.07642511	          0.00999999	          0.33216276	          0.24282524	          0.11440031	          0.01000000	          0.19765666	          0.20461127	          0.10382220	          0.19295059	          0.00999999	          0.01168548	          0.14409856	          0.02016498	          0.12834954	          0.01650327	          0.50993965	          0.01350644	          0.02032384	          0.15745386	          0.19437598	          0.00999999	
          0.63864074	          3.74841941	          1.96705013	         -2.80778903	          0.77283493	          0.82901896	         -0.00281298	         25.39802746	          3.89618151	          5.53432724	        -44.92484934	         17.32891730	          0.11040160	          1.70783909	          3.60880880	        -14.90266074	        -51.16484256	          6.34029340	         26.80339354	        -10.90645663	          0.50130408	         -5.98549676	          0.11189578	          0.05379967	          0.02019461	          0.07386453	          0.08800049	          0.01000002	          0.06913883	          0.00999999	          0.30049474	          0.21967456	          0.11991441	          0.00999999	          0.21936092	          0.18510387	          0.10983761	          0.19042299	          0.01000000	          0.01057141	          0.13036039	          0.01824247	          0.14859580	          0.01492987	          0.47656267	          0.01221880	          0.01838618	          0.17074392	          0.17584440	          0.00999999	
          0.64496392	          3.71074237	          2.39606175	         -3.35497467	          0.78061504	          0.82727903	         -0.00296354	         24.98874015	          3.77758596	          5.98463907	        -45.04938552	         17.54993590	          0.28776733	          2.40820425	          3.78349261	        -15.62853280	        -53.01569634	          5.14139908	         26.30712496	        -10.85800221	          0.40072209	         -6.07606653	          0.10122776	          0.04867047	          0.01826928	          0.07380493	          0.07961063	          0.01000000	          0.06254721	          0.01934226	          0.27184592	          0.19873104	          0.16497759	          0.05068399	          0.25072544	          0.16745628	          0.11850468	          0.17919663	          0.01000012	          0.00999999	          0.11793201	          0.01650326	          0.17348061	          0.01350647	          0.43121267	          0.01105392	          0.01663327	          0.20307118	          0.15907959	          0.00999999	
          0.65128709	          3.66662647	          2.78076092	         -3.88372180	          0.78841957	          0.82539648	         -0.00315795	         24.53230421	          3.59539936	          6.61989390	        -45.33041443	         18.36655773	          0.66930459	          3.18910490	          3.89107705	        -16.28528099	        -54.94548368	          3.87604654	         25.67698693	        -10.79837127	          0.34677128	         -6.13597781	          0.09157683	          0.04403028	          0.01652751	          0.13207260	          0.07202064	          0.01000001	          0.05658403	          0.02033003	          0.24592844	          0.17978425	          0.20842749	          0.04585184	          0.25723549	          0.15149119	          0.15584781	          0.17157767	          0.03010596	          0.00999999	          0.19740547	          0.01492986	          0.17369768	          0.01221878	          0.39010136	          0.01000016	          0.01504747	          0.20663493	          0.14391313	          0.00999999	
          0.65761027	          3.61591595	          3.12140843	         -4.39548865	          0.79620068	          0.82345118	         -0.00334142	         24.07365063	          3.41183526	          7.31470865	        -45.62463825	         19.34778726	          1.15728667	          4.04072423	          3.92828380	        -16.88375368	        -56.91732149	          2.52482426	         24.90671695	        -10.73377306	          0.33004646	         -6.16940732	          0.08284600	          0.03983249	          0.01495179	          0.17313141	          0.06515428	          0.01000003	          0.05118938	          0.01839180	          0.22248190	          0.16264383	          0.26017290	          0.04148038	          0.27998169	          0.13704819	          0.16641328	          0.16360407	          0.02723569	          0.00999999	          0.17858509	          0.01350646	          0.18073745	          0.01105386	          0.35290955	          0.01000013	          0.01361286	          0.21801947	          0.13019261	          0.00999999	
          0.66393344	          3.55916659	          3.42508697	         -4.89488306	          0.80390762	          0.82151928	         -0.00349517	         23.68668975	          3.25084488	          7.95958670	        -46.00534650	         20.30669951	          1.70635858	          4.95406522	          3.90555900	        -17.43059211	        -58.89460076	          1.07268441	         23.98969188	        -10.67116477	          0.33883810	         -6.17629830	          0.07494755	          0.03603490	          0.01352631	          0.18887542	          0.05894255	          0.01000008	          0.04630904	          0.01663835	          0.20127073	          0.14713755	          0.31217358	          0.03752569	          0.30219390	          0.12398217	          0.18357908	          0.17842828	          0.02463907	          0.00999999	          0.16155900	          0.01221877	          0.18899311	          0.00999999	          0.31926357	          0.01000006	          0.01231503	          0.22086713	          0.11778020	          0.00999999	
          0.67025662	          3.49741685	          3.69802981	         -5.38053556	          0.81152133	          0.81966274	         -0.00362312	         23.39955755	          3.11200072	          8.54183572	        -46.51471137	         21.18627359	          2.29278046	          5.91742606	          3.83537524	        -17.92302076	        -60.84255426	         -0.48638952	         22.92197864	        -10.61394065	          0.36474610	         -6.15962283	          0.07317458	          0.03259938	          0.01223673	          0.19295684	          0.05332304	          0.01000001	          0.04189399	          0.01505207	          0.18208181	          0.13310963	          0.36657763	          0.03394804	          0.32375379	          0.11216186	          0.20336026	          0.20798138	          0.02229001	          0.00999999	          0.14615616	          0.01105385	          0.21160705	          0.00999999	          0.28882536	          0.01025380	          0.01114093	          0.22440950	          0.10655117	          0.00999999	
          0.67657980	          3.43197762	          3.94943188	         -5.84836115	          0.81905682	          0.81792688	         -0.00372709	         23.18522837	          2.98487470	          9.06471555	        -47.10472414	         21.95101861	          2.91209407	          6.91575252	          3.73448433	        -18.35627782	        -62.72674473	         -2.15300672	         21.70679217	        -10.56065772	          0.39510997	         -6.12287521	          0.08189346	          0.02949139	          0.01107009	          0.19877425	          0.04823928	          0.01000003	          0.03789987	          0.01361702	          0.16472234	          0.12041911	          0.41673207	          0.03071147	          0.34356376	          0.10146847	          0.21394814	          0.23649242	          0.02016491	          0.00999999	          0.13222180	          0.01000000	          0.23303984	          0.00999999	          0.26224405	          0.02222894	          0.01007876	          0.23869846	          0.09639270	          0.00999999	
